<?xml version="1.0" encoding="iso-8859-1"?>
<!-- Generator: Adobe Illustrator 19.0.0, SVG Export Plug-In . SVG Version: 6.00 Build 0)  -->
<svg version="1.1" id="Capa_1" xmlns="http://www.w3.org/2000/svg" xmlns:xlink="http://www.w3.org/1999/xlink" x="0px" y="0px"
	 viewBox="0 0 512 512" style="enable-background:new 0 0 512 512;" xml:space="preserve">
<rect x="7.515" y="147.789" style="fill:#515790;" width="496.971" height="304.595"/>
<circle style="fill:#C5C7DA;" cx="320.125" cy="300.086" r="120.235"/>
<circle style="fill:#49B9DE;" cx="320.125" cy="300.086" r="80.157"/>
<path style="fill:#4296BD;" d="M344.172,356.196c-44.269,0-80.157-35.887-80.157-80.157c0-15.98,4.695-30.854,12.754-43.356
	c-22.132,14.266-36.801,39.113-36.801,67.403c0,44.269,35.887,80.157,80.157,80.157c28.289,0,53.137-14.669,67.404-36.801
	C375.026,351.501,360.152,356.196,344.172,356.196z"/>
<polygon style="fill:#A7AAC7;" points="416.313,147.789 223.937,147.789 256,59.616 384.25,59.616 "/>
<polygon style="fill:#C5C7DA;" points="258.269,123.742 272.843,83.663 367.408,83.663 381.981,123.742 "/>
<g>
	<polygon style="fill:#515790;" points="272.843,83.663 258.269,123.742 286.727,123.742 326.805,83.663 	"/>
	<polygon style="fill:#515790;" points="367.408,83.663 358.868,83.663 318.79,123.742 381.981,123.742 	"/>
</g>
<rect x="47.593" y="115.726" style="fill:#682089;" width="48.094" height="32.063"/>
<rect x="47.593" y="115.726" style="fill:#551577;" width="24.047" height="32.063"/>
<rect x="7.515" y="147.789" style="fill:#F6D45A;" width="128.25" height="304.595"/>
<rect x="7.515" y="147.789" style="fill:#F2A83B;" width="32.063" height="304.595"/>
<circle style="fill:#E1E2EC;" cx="352.188" cy="284.055" r="16.031"/>
<path d="M504.485,140.274h-82.909l-30.264-83.226c-1.079-2.97-3.902-4.947-7.062-4.947H256c-3.16,0-5.983,1.977-7.062,4.947
	l-30.264,83.226H103.202v-24.548c0-4.15-3.365-7.515-7.515-7.515H47.593c-4.15,0-7.515,3.365-7.515,7.515v24.548H7.515
	c-4.15,0-7.515,3.365-7.515,7.515v304.595c0,4.15,3.365,7.515,7.515,7.515h496.971c4.15,0,7.515-3.365,7.515-7.515V147.789
	C512,143.639,508.635,140.274,504.485,140.274z M261.263,67.131h117.723l26.598,73.143H234.666L261.263,67.131z M55.108,123.241
	h33.065v17.033H55.108V123.241z M496.971,444.869H143.28V261.01c0-4.15-3.365-7.515-7.515-7.515s-7.515,3.365-7.515,7.515v183.859
	H15.029V155.303H128.25v72.308c0,4.15,3.365,7.515,7.515,7.515s7.515-3.365,7.515-7.515v-72.308h353.691V444.869z"/>
<path d="M320.125,212.415c-48.342,0-87.671,39.329-87.671,87.671s39.329,87.671,87.671,87.671s87.671-39.329,87.671-87.671
	S368.468,212.415,320.125,212.415z M320.125,372.728c-40.055,0-72.642-32.587-72.642-72.642s32.587-72.642,72.642-72.642
	s72.642,32.587,72.642,72.642S360.18,372.728,320.125,372.728z"/>
<path d="M389.044,121.174L374.47,81.095c-1.08-2.97-3.903-4.947-7.063-4.947h-94.565c-3.16,0-5.983,1.977-7.062,4.947
	l-14.573,40.078c-1.754,4.823,1.94,10.083,7.062,10.083h123.713C387.104,131.256,390.798,125.997,389.044,121.174z M268.997,116.227
	l9.109-25.049h84.037l9.109,25.049H268.997z"/>
<path d="M472.423,412.806h-24.047c-4.15,0-7.515,3.365-7.515,7.515c0,4.15,3.365,7.515,7.515,7.515h24.047
	c4.15,0,7.515-3.365,7.515-7.515C479.937,416.171,476.573,412.806,472.423,412.806z"/>
<path d="M424.329,412.806h-24.047c-4.15,0-7.515,3.365-7.515,7.515c0,4.15,3.365,7.515,7.515,7.515h24.047
	c4.15,0,7.515-3.365,7.515-7.515C431.843,416.171,428.479,412.806,424.329,412.806z"/>
<path d="M440.36,187.366h32.063c4.15,0,7.515-3.365,7.515-7.515s-3.365-7.515-7.515-7.515H440.36c-4.15,0-7.515,3.365-7.515,7.515
	S436.21,187.366,440.36,187.366z"/>
<path d="M320.125,427.836c-70.442,0-127.75-57.308-127.75-127.75s57.308-127.749,127.75-127.749
	c20.517,0,40.114,4.718,58.248,14.023c3.692,1.895,5.15,6.425,3.255,10.117c-1.896,3.692-6.427,5.149-10.117,3.255
	c-15.99-8.206-33.279-12.366-51.386-12.366c-62.154,0-112.72,50.566-112.72,112.72s50.566,112.72,112.72,112.72
	s112.72-50.566,112.72-112.72c0-31.01-12.331-59.909-34.722-81.377c-2.996-2.873-3.096-7.629-0.223-10.625
	c2.872-2.996,7.63-3.096,10.625-0.223c25.376,24.329,39.35,57.081,39.35,92.225C447.875,370.528,390.567,427.836,320.125,427.836z"
	/>
<g>
</g>
<g>
</g>
<g>
</g>
<g>
</g>
<g>
</g>
<g>
</g>
<g>
</g>
<g>
</g>
<g>
</g>
<g>
</g>
<g>
</g>
<g>
</g>
<g>
</g>
<g>
</g>
<g>
</g>
</svg>
